<svg width="32" height="32" viewBox="0 0 32 32" fill="none" xmlns="http://www.w3.org/2000/svg">
<rect width="32" height="32" rx="16" fill="#F0F0F0"/>
<g clip-path="url(#clip0_11_33)">
<path d="M26.9034 13.01C26.7847 12.7418 26.6017 12.5063 26.3701 12.3238C25.9586 12.0068 25.4982 11.7572 25.0066 11.5846C24.5341 11.4042 24.0545 11.2662 23.575 11.1354C21.6503 10.6688 19.6932 10.3449 17.7197 10.1662C19.6874 10.3477 21.6278 10.7499 23.5034 11.3653C23.9642 11.524 24.4138 11.7131 24.8491 11.9312C25.2747 12.13 25.6661 12.3938 26.0087 12.7129C26.1542 12.8498 26.2614 13.0216 26.32 13.2116C26.3593 13.3778 26.3364 13.5524 26.2556 13.7032C26.0488 14.0709 25.7554 14.3839 25.4002 14.6158C24.6206 15.132 23.7712 15.5368 22.8771 15.8183C21.977 16.1278 21.053 16.3644 20.1141 16.5257C19.5772 16.6212 19.0404 16.692 18.5 16.745C18.3175 16.0788 17.9318 15.4843 17.3951 15.0426C16.8585 14.6009 16.1971 14.3334 15.5011 14.2766C14.8051 14.2197 14.1083 14.3763 13.5056 14.725C12.9029 15.0737 12.4236 15.5975 12.133 16.2251C11.0913 15.9579 10.0747 15.6029 9.0944 15.164C8.25312 14.8053 7.46845 14.3288 6.76449 13.7492C6.45954 13.5051 6.22194 13.1887 6.07374 12.8296C6.02528 12.7043 6.02528 12.5658 6.07374 12.4405C6.14468 12.2783 6.2539 12.1352 6.39227 12.0232C6.74397 11.7367 7.13886 11.5064 7.5626 11.3405C8.00938 11.1521 8.46853 10.9938 8.93693 10.8666C9.87699 10.6105 10.8336 10.4178 11.8001 10.29C13.4917 10.071 15.2005 10.0094 16.9037 10.1061C15.2052 9.98698 13.5009 9.96808 11.8001 10.0495C10.7961 10.0889 9.79563 10.1905 8.80451 10.3537C8.30301 10.4329 7.80697 10.5428 7.31923 10.6826C6.79825 10.8212 6.30292 11.0409 5.85185 11.3334C5.58877 11.5065 5.36758 11.7347 5.20405 12.0019C5.02585 12.3169 4.96147 12.6824 5.02152 13.0383C5.14828 13.6266 5.44114 14.1675 5.86616 14.5981C6.59428 15.3631 7.43973 16.01 8.37145 16.5151C9.46233 17.1143 10.6186 17.5889 11.818 17.9299C11.877 18.7367 12.2288 19.4954 12.8087 20.0663C13.3886 20.6372 14.1577 20.9819 14.9743 21.0369C15.791 21.092 16.6003 20.8538 17.2533 20.3661C17.9064 19.8784 18.3592 19.1741 18.5286 18.3826C19.1713 18.2899 19.8082 18.1612 20.4362 17.9971C21.4311 17.7354 22.4011 17.3887 23.3352 16.9608C24.2849 16.5372 25.1673 15.9796 25.955 15.3055C26.3874 14.9459 26.72 14.4833 26.9213 13.9614C27.0336 13.6528 27.0273 13.3142 26.9034 13.01Z" fill="#070707"/>
</g>
<defs>
<clipPath id="clip0_11_33">
<rect width="22" height="11" fill="white" transform="translate(5 10)"/>
</clipPath>
</defs>
</svg>
