<svg width="32" height="32" viewBox="0 0 32 32" fill="none" xmlns="http://www.w3.org/2000/svg">
<rect width="32" height="32" rx="16" fill="#F0F0F0"/>
<path d="M12.3057 11.7222C12.4845 11.7222 12.6614 11.687 12.8266 11.6186C12.9917 11.5502 13.1418 11.45 13.2682 11.3236C13.3946 11.1972 13.4948 11.0471 13.5632 10.882C13.6316 10.7168 13.6668 10.5399 13.6668 10.3611C13.6668 10.1824 13.6316 10.0054 13.5632 9.84024C13.4948 9.6751 13.3946 9.52505 13.2682 9.39866C13.1418 9.27227 12.9917 9.17201 12.8266 9.10361C12.6614 9.03521 12.4845 9 12.3057 9C11.9447 9 11.5985 9.1434 11.3433 9.39866C11.088 9.65392 10.9446 10.0001 10.9446 10.3611C10.9446 10.7221 11.088 11.0683 11.3433 11.3236C11.5985 11.5788 11.9447 11.7222 12.3057 11.7222ZM13.8613 12.5C13.9094 12.5001 13.9573 12.5061 14.004 12.5179C14.4368 12.6268 14.7281 12.8908 14.9113 13.2513C15.0715 13.5663 15.1497 13.9591 15.2146 14.3488L15.6035 16.6821C15.6161 16.7577 15.6137 16.835 15.5964 16.9097C15.5791 16.9843 15.5472 17.0548 15.5027 17.1172C15.4581 17.1795 15.4018 17.2325 15.3368 17.273C15.2717 17.3136 15.1994 17.3409 15.1238 17.3535C15.0482 17.3661 14.9709 17.3637 14.8962 17.3464C14.8216 17.3291 14.7511 17.2973 14.6887 17.2527C14.6264 17.2082 14.5734 17.1518 14.5329 17.0868C14.4923 17.0218 14.465 16.9494 14.4524 16.8738L14.0635 14.5405C14.0367 14.3694 14.0023 14.1995 13.9604 14.0314L13.8613 15.2222C13.8613 15.8468 14.5235 19.2511 14.7549 20.4217C14.7651 20.4729 14.7648 20.5257 14.7539 20.5768C14.7431 20.628 14.7219 20.6763 14.6917 20.719C14.6616 20.7617 14.623 20.7978 14.5785 20.8251C14.5339 20.8524 14.4843 20.8703 14.4325 20.8778C12.8303 21.1108 11.7815 21.1182 10.1785 20.8794C10.1268 20.8716 10.0773 20.8534 10.0328 20.8259C9.98843 20.7984 9.95008 20.7621 9.92014 20.7193C9.89019 20.6765 9.86928 20.628 9.85867 20.5768C9.84806 20.5257 9.84798 20.4729 9.85843 20.4217C10.0918 19.2698 10.7502 15.9494 10.7502 15.2222L10.651 14.0318C10.6172 14.159 10.5841 14.3243 10.5479 14.5409L10.159 16.8742C10.1336 17.0269 10.0486 17.1632 9.92268 17.2531C9.86033 17.2977 9.78982 17.3295 9.71518 17.3468C9.64053 17.3641 9.56321 17.3665 9.48763 17.3539C9.33498 17.3285 9.19868 17.2435 9.10872 17.1176C9.01876 16.9916 8.98251 16.8351 9.00793 16.6825L9.39682 14.3492C9.46215 13.9591 9.54032 13.5671 9.70015 13.2513C9.88371 12.8912 10.1746 12.6272 10.6078 12.5183C10.6542 12.5064 10.7014 12.5004 10.7494 12.5004H13.8613M10.8011 21.488L10.9477 22.6593C10.959 22.7493 11.0014 22.8325 11.0676 22.8945C11.1337 22.9565 11.2195 22.9935 11.31 22.999C11.4005 23.0045 11.4901 22.9781 11.5633 22.9246C11.6365 22.871 11.6886 22.7936 11.7107 22.7056L11.9907 21.5856C11.6049 21.5712 11.2129 21.5389 10.8011 21.488ZM12.623 21.5942L12.9007 22.7052C12.9228 22.7932 12.9749 22.8706 13.048 22.9242C13.1212 22.9778 13.2107 23.0042 13.3012 22.9987C13.3917 22.9933 13.4775 22.9564 13.5437 22.8944C13.6099 22.8324 13.6523 22.7493 13.6637 22.6593L13.8057 21.5265C13.4126 21.5662 13.018 21.5888 12.623 21.5942Z" fill="black"/>
<path fill-rule="evenodd" clip-rule="evenodd" d="M19.1113 16V15.2222H18.7224C18.3098 15.2222 17.9142 15.0583 17.6224 14.7666C17.3307 14.4749 17.1668 14.0792 17.1668 13.6667H17.9446C17.9446 13.8729 18.0265 14.0708 18.1724 14.2166C18.3183 14.3625 18.5161 14.4444 18.7224 14.4444H19.1113V12.8889H18.7224C18.3098 12.8889 17.9142 12.725 17.6224 12.4333C17.3307 12.1416 17.1668 11.7459 17.1668 11.3333C17.1668 10.9208 17.3307 10.5251 17.6224 10.2334C17.9142 9.94167 18.3098 9.77778 18.7224 9.77778H19.1113V9H19.889V9.77778H20.2779C20.6905 9.77778 21.0862 9.94167 21.3779 10.2334C21.6696 10.5251 21.8335 10.9208 21.8335 11.3333H21.0557C21.0557 11.1271 20.9738 10.9292 20.8279 10.7834C20.682 10.6375 20.4842 10.5556 20.2779 10.5556H19.889V12.1111H20.2779C20.6905 12.1111 21.0862 12.275 21.3779 12.5667C21.6696 12.8584 21.8335 13.2541 21.8335 13.6667C21.8335 14.0792 21.6696 14.4749 21.3779 14.7666C21.0862 15.0583 20.6905 15.2222 20.2779 15.2222H19.889V16H19.1113ZM20.2779 14.4444H19.889V12.8889H20.2779C20.4842 12.8889 20.682 12.9708 20.8279 13.1167C20.9738 13.2626 21.0557 13.4604 21.0557 13.6667C21.0557 13.8729 20.9738 14.0708 20.8279 14.2166C20.682 14.3625 20.4842 14.4444 20.2779 14.4444ZM18.7224 10.5556H19.1113V12.1111H18.7224C18.5161 12.1111 18.3183 12.0292 18.1724 11.8833C18.0265 11.7374 17.9446 11.5396 17.9446 11.3333C17.9446 11.1271 18.0265 10.9292 18.1724 10.7834C18.3183 10.6375 18.5161 10.5556 18.7224 10.5556ZM16.0002 20.2778C16.0002 19.7699 16.3249 19.3378 16.7779 19.1772V16.7778H17.5557V17.1667H21.4446V16.7778H22.2224V19.1772C22.6754 19.3378 23.0002 19.7699 23.0002 20.2778V23H22.2224V21.8333H16.7779V23H16.0002V20.2778ZM21.4446 17.9444H20.6668V19.1111H21.4446V17.9444ZM19.889 17.9444H19.1113V19.1111H19.889V17.9444ZM18.3335 17.9444H17.5557V19.1111H18.3335V17.9444ZM17.1668 19.8889C17.0637 19.8889 16.9648 19.9299 16.8918 20.0028C16.8189 20.0757 16.7779 20.1746 16.7779 20.2778V21.0556H22.2224V20.2778C22.2224 20.1746 22.1814 20.0757 22.1085 20.0028C22.0355 19.9299 21.9366 19.8889 21.8335 19.8889H17.1668Z" fill="black"/>
</svg>
