<svg xmlns="http://www.w3.org/2000/svg" width="35" height="35" viewBox="0 0 35 35" fill="none"><circle cx="17.0697" cy="17.0697" r="17.0697" fill="#05595B"></circle><path d="M25.4765 24.6358C26.062 24.5138 26.4121 23.9006 26.1204 23.3766C25.4775 22.2235 24.4655 21.2093 23.1713 20.437C21.5037 19.442 19.4594 18.902 17.359 18.902C15.2586 18.902 13.2144 19.4409 11.5467 20.437C10.2525 21.2093 9.24049 22.2235 8.59762 23.3766C8.3059 23.9006 8.65597 24.5138 9.24155 24.6358C14.5953 25.7517 20.1216 25.7517 25.4754 24.6358" fill="white"></path><path d="M17.3591 17.8412C20.2885 17.8412 22.6632 15.4665 22.6632 12.5371C22.6632 9.60766 20.2885 7.23291 17.3591 7.23291C14.4297 7.23291 12.0549 9.60766 12.0549 12.5371C12.0549 15.4665 14.4297 17.8412 17.3591 17.8412Z" fill="white"></path></svg>