<svg xmlns="http://www.w3.org/2000/svg" width="31" height="32" viewBox="0 0 31 32" fill="none"><rect width="31" height="32" rx="15.5" fill="#F0F0F0"></rect><path d="M14.7105 16.8H18.6579M12.3421 16.8H12.3492M16.2895 20H12.3421M18.6579 20H18.6508M20.2368 8V9.6M10.7632 8V9.6M8.39474 12.8H22.6053M8 16.1944C8 12.7088 8 10.9656 8.98842 9.8824C9.97684 8.8 11.5684 8.8 14.75 8.8H16.25C19.4316 8.8 21.0232 8.8 22.0116 9.8832C23 10.9656 23 12.7088 23 16.1952V16.6056C23 20.0912 23 21.8344 22.0116 22.9176C21.0232 24 19.4316 24 16.25 24H14.75C11.5684 24 9.97684 24 8.98842 22.9168C8 21.8344 8 20.0912 8 16.6048V16.1944Z" stroke="black" stroke-width="1.5" stroke-linecap="round" stroke-linejoin="round"></path></svg>