<svg xmlns="http://www.w3.org/2000/svg" width="32" height="32" viewBox="0 0 32 32" fill="none"><rect width="32" height="32" rx="16" fill="#F0F0F0"></rect><path d="M22.6666 16C22.6666 13.486 22.6666 12.2287 21.8853 11.448C21.1039 10.6673 19.8473 10.6667 17.3333 10.6667H14.6666C12.1526 10.6667 10.8953 10.6667 10.1146 11.448C9.33392 12.2293 9.33325 13.486 9.33325 16C9.33325 18.514 9.33325 19.7713 10.1146 20.552C10.8959 21.3327 12.1526 21.3333 14.6666 21.3333H17.3333C19.8473 21.3333 21.1046 21.3333 21.8853 20.552C22.3213 20.1167 22.5139 19.5333 22.5986 18.6667M14.6666 18.6667H11.9999M17.3333 18.6667H16.3333M9.33325 14.6667H12.6666M22.6666 14.6667H15.3333" stroke="black" stroke-linecap="round"></path></svg>