<svg xmlns="http://www.w3.org/2000/svg" width="32" height="32" viewBox="0 0 32 32" fill="none"><rect width="32" height="32" rx="16" fill="#F0F0F0"></rect><path d="M20.5333 12.2667C19.2773 10.592 17.68 9.66667 16 9.66667C14.32 9.66667 12.7227 10.592 11.4667 12.2667C10.522 13.526 9.38268 15.2267 9.22534 17.016C9.14468 17.9387 9.32334 18.8833 9.90468 19.7827C10.4787 20.6707 11.4167 21.47 12.7813 22.1693C13.6207 22.5993 14.5347 22.0227 14.654 21.1807C14.3704 20.9896 14.1103 20.7656 13.8793 20.5133C13.204 19.7767 12.666 18.698 12.666 17.3333C12.666 15.048 13.846 13.51 15.266 13.104C15.454 13.0507 15.666 13.192 15.6887 13.3867C15.7828 14.1927 16.1676 14.9367 16.7711 15.4791C17.3746 16.0216 18.1552 16.3253 18.9667 16.3333C19.416 16.3373 19.3333 17.04 19.3333 17.3333C19.3333 18.698 18.796 19.7767 18.12 20.5133C17.8787 20.7773 17.6133 21.0027 17.344 21.182C17.4507 22.0273 18.356 22.6087 19.196 22.2027C20.6393 21.5067 21.6247 20.7073 22.2213 19.8127C22.826 18.9047 22.9967 17.948 22.8927 17.0167C22.6927 15.2233 21.468 13.512 20.5333 12.2667Z" fill="black"></path></svg>