<svg xmlns="http://www.w3.org/2000/svg" xmlns:xlink="http://www.w3.org/1999/xlink" id="Calque_1" x="0px" y="0px" viewBox="0 0 57 50" style="enable-background:new 0 0 57 50;" xml:space="preserve"><style type="text/css">	.st0{fill:#FFFFFF;stroke:#05595B;stroke-width:2;stroke-linecap:round;stroke-linejoin:round;}</style><path class="st0" d="M20.5,22.3l5.3,5.3l12-12 M28.5,6.7C23.2,0.5,14.3-1.2,7.6,4.5c-6.7,5.7-7.6,15.3-2.4,22 c4,5.1,15.2,15.3,20.5,20c1,0.9,1.5,1.3,2,1.5c0.5,0.1,1,0.1,1.5,0c0.6-0.2,1.1-0.6,2-1.5c5.3-4.7,16.5-14.9,20.5-20 c5.2-6.8,4.4-16.4-2.4-22C42.6-1.2,33.8,0.5,28.5,6.7z"></path></svg>