<svg xmlns="http://www.w3.org/2000/svg" width="32" height="32" viewBox="0 0 32 32" fill="none"><rect width="32" height="32" rx="16" fill="#F0F0F0"></rect><path d="M16.5801 18.0467L14.8867 16.3733L14.9067 16.3533C16.0365 15.0983 16.8804 13.613 17.3801 12H19.3334V10.6667H14.6667V9.33333H13.3334V10.6667H8.66675V12H16.1134C15.6667 13.28 14.9601 14.5 14.0001 15.5667C13.3801 14.88 12.8667 14.1267 12.4601 13.3333H11.1267C11.6134 14.42 12.2801 15.4467 13.1134 16.3733L9.72008 19.72L10.6667 20.6667L14.0001 17.3333L16.0734 19.4067L16.5801 18.0467ZM20.3334 14.6667H19.0001L16.0001 22.6667H17.3334L18.0801 20.6667H21.2467L22.0001 22.6667H23.3334L20.3334 14.6667ZM18.5867 19.3333L19.6667 16.4467L20.7467 19.3333H18.5867Z" fill="black"></path></svg>