<svg width="32" height="32" viewBox="0 0 32 32" fill="none" xmlns="http://www.w3.org/2000/svg">
<rect width="32" height="32" rx="16" fill="#F0F0F0"/>
<path d="M9.88235 24L13.4118 22.2222V19.5556H24M16.0588 22.2222H24M13.4118 16.8889L16.0588 15.1111L16.9412 11.5556C19.5882 12.4444 19.5882 15.1111 19.5882 16.8889M9 19.5556C9 19.7913 9.09296 20.0174 9.25844 20.1841C9.42391 20.3508 9.64834 20.4444 9.88235 20.4444C10.1164 20.4444 10.3408 20.3508 10.5063 20.1841C10.6717 20.0174 10.7647 19.7913 10.7647 19.5556C10.7647 19.3198 10.6717 19.0937 10.5063 18.927C10.3408 18.7603 10.1164 18.6667 9.88235 18.6667C9.64834 18.6667 9.42391 18.7603 9.25844 18.927C9.09296 19.0937 9 19.3198 9 19.5556ZM13.4118 8.88889C13.4118 9.12464 13.5047 9.35073 13.6702 9.51743C13.8357 9.68413 14.0601 9.77778 14.2941 9.77778C14.5281 9.77778 14.7526 9.68413 14.918 9.51743C15.0835 9.35073 15.1765 9.12464 15.1765 8.88889C15.1765 8.65314 15.0835 8.42705 14.918 8.26035C14.7526 8.09365 14.5281 8 14.2941 8C14.0601 8 13.8357 8.09365 13.6702 8.26035C13.5047 8.42705 13.4118 8.65314 13.4118 8.88889Z" stroke="black" stroke-width="2" stroke-linecap="round" stroke-linejoin="round"/>
</svg>
