<svg xmlns="http://www.w3.org/2000/svg" width="31" height="32" viewBox="0 0 31 32" fill="none"><rect width="31" height="32" rx="15.5" fill="#F0F0F0"></rect><path d="M10.7505 8.5C10.7505 8.5 11.7004 10.7603 11.4893 11.7877C11.2782 12.8151 10.4339 13.0205 9.69504 14.9726C8.95622 16.9247 10.5394 19.9041 10.7505 20.4178C10.9616 20.9315 10.7505 23.5 10.7505 23.5H15.5V18.1575L14.0224 16.7192" stroke="black"></path><path d="M20.2495 8.5C20.2495 8.5 19.2996 10.7603 19.5107 11.7877C19.7218 12.8151 20.5661 13.0205 21.305 14.9726C22.0438 16.9247 20.4606 19.9041 20.2495 20.4178C20.0384 20.9315 20.2495 23.5 20.2495 23.5H15.5V18.1575L16.8721 16.8219" stroke="black"></path></svg>