<svg xmlns="http://www.w3.org/2000/svg" width="32" height="32" viewBox="0 0 32 32" fill="none"><rect width="32" height="32" rx="16" fill="#F0F0F0"></rect><path d="M8 20.5454V16.4545C8 16.1855 8.07585 15.8988 8.22756 15.5945C8.37926 15.2903 8.5997 15.0618 8.88889 14.9091V12.8182C8.88889 12.3055 9.05985 11.8742 9.40178 11.5245C9.7437 11.1748 10.1653 11 10.6667 11H14.6667C14.973 11 15.2347 11.0645 15.4516 11.1936C15.6679 11.3221 15.8507 11.5 16 11.7273C16.1493 11.5 16.3321 11.3221 16.5484 11.1936C16.7653 11.0645 17.027 11 17.3333 11H21.3333C21.8347 11 22.2563 11.1748 22.5982 11.5245C22.9401 11.8742 23.1111 12.3055 23.1111 12.8182V14.9091C23.4009 15.0618 23.6213 15.2903 23.7724 15.5945C23.9241 15.8988 24 16.1855 24 16.4545V20.5454C24 20.6745 23.9573 20.7824 23.872 20.8691C23.7867 20.9558 23.6809 20.9994 23.5547 21C23.4284 21.0006 23.323 20.957 23.2382 20.8691C23.1535 20.7812 23.1111 20.6733 23.1111 20.5454V19.1818H8.88889V20.5454C8.88889 20.6745 8.84622 20.7824 8.76089 20.8691C8.67556 20.9558 8.56978 20.9994 8.44356 21C8.31733 21.0006 8.21185 20.957 8.12711 20.8691C8.04237 20.7812 8 20.6733 8 20.5454ZM16.4444 14.6364H22.2222V12.8182C22.2222 12.5606 22.1369 12.3448 21.9662 12.1709C21.7956 11.997 21.5846 11.9097 21.3333 11.9091H17.3333C17.0815 11.9091 16.8705 11.9964 16.7004 12.1709C16.5304 12.3455 16.445 12.5612 16.4444 12.8182V14.6364ZM9.77778 14.6364H15.5556V12.8182C15.5556 12.5606 15.4702 12.3448 15.2996 12.1709C15.1289 11.997 14.9179 11.9097 14.6667 11.9091H10.6667C10.4148 11.9091 10.2039 11.9964 10.0338 12.1709C9.8637 12.3455 9.77837 12.5612 9.77778 12.8182V14.6364ZM8.88889 18.2727H23.1111V16.4545C23.1111 16.197 23.0258 15.9812 22.8551 15.8073C22.6844 15.6333 22.4735 15.5461 22.2222 15.5455H9.77778C9.52593 15.5455 9.31496 15.6327 9.14489 15.8073C8.97481 15.9818 8.88948 16.1976 8.88889 16.4545V18.2727Z" fill="black"></path></svg>