<svg xmlns="http://www.w3.org/2000/svg" width="32" height="32" viewBox="0 0 32 32" fill="none"><rect width="32" height="32" rx="16" fill="#F0F0F0"></rect><path d="M22.778 8.085C22.8462 8.13064 22.9022 8.19237 22.9409 8.26475C22.9796 8.33712 22.9999 8.41792 23 8.5V16C23 16.0999 22.9701 16.1974 22.9141 16.2801C22.8581 16.3628 22.7787 16.4269 22.686 16.464L22.683 16.465L22.677 16.468L22.654 16.477C22.5226 16.5293 22.3902 16.5793 22.257 16.627C21.993 16.722 21.626 16.85 21.21 16.977C20.394 17.229 19.331 17.5 18.5 17.5C17.653 17.5 16.952 17.22 16.342 16.975L16.314 16.965C15.68 16.71 15.14 16.5 14.5 16.5C13.8 16.5 12.862 16.73 12.063 16.977C11.7053 17.0887 11.3508 17.2104 11 17.342V23.5C11 23.6326 10.9473 23.7598 10.8536 23.8536C10.7598 23.9473 10.6326 24 10.5 24C10.3674 24 10.2402 23.9473 10.1464 23.8536C10.0527 23.7598 10 23.6326 10 23.5V8.5C10 8.36739 10.0527 8.24021 10.1464 8.14645C10.2402 8.05268 10.3674 8 10.5 8C10.6326 8 10.7598 8.05268 10.8536 8.14645C10.9473 8.24021 11 8.36739 11 8.5V8.782C11.226 8.703 11.496 8.612 11.79 8.522C12.606 8.272 13.67 8 14.5 8C15.34 8 16.024 8.277 16.621 8.519L16.664 8.537C17.286 8.788 17.828 9 18.5 9C19.2 9 20.138 8.77 20.937 8.523C21.3922 8.38047 21.8422 8.2217 22.286 8.047L22.305 8.04L22.309 8.038H22.31M22 9.221C21.78 9.299 21.52 9.388 21.234 9.476C20.424 9.728 19.362 9.999 18.5 9.999C17.614 9.999 16.908 9.713 16.297 9.465L16.289 9.462C15.662 9.21 15.139 9 14.5 9C13.831 9 12.894 9.229 12.085 9.478C11.7201 9.59045 11.3583 9.71282 11 9.845V16.278C11.22 16.2 11.48 16.111 11.766 16.023C12.576 15.77 13.638 15.5 14.5 15.5C15.347 15.5 16.048 15.78 16.658 16.025L16.686 16.035C17.32 16.29 17.86 16.5 18.5 16.5C19.168 16.5 20.106 16.271 20.915 16.022C21.2799 15.9096 21.6417 15.7872 22 15.655V9.222V9.221Z" fill="black"></path></svg>