<svg xmlns="http://www.w3.org/2000/svg" width="32" height="32" viewBox="0 0 32 32" fill="none"><rect width="32" height="32" rx="16" fill="#F0F0F0"></rect><path d="M10.4885 10.3338C10.5355 10.3103 10.5867 10.2963 10.6391 10.2926C10.6915 10.2889 10.7442 10.2955 10.794 10.3122C10.8439 10.3288 10.89 10.3551 10.9296 10.3896C10.9693 10.424 11.0018 10.466 11.0253 10.513C11.1425 10.7478 11.2185 11.017 11.1821 11.3075C11.1453 11.6023 10.9989 11.8691 10.7617 12.1067L10.3845 12.4839C10.3073 12.5607 10.1904 12.6671 10.0728 12.7744V12.7748L9.95763 12.8796C9.79402 13.0296 9.65241 13.1644 9.57601 13.2536C9.18933 13.707 8.9352 14.2583 8.84156 14.8469C8.74596 15.4296 8.81553 16.0274 9.04238 16.5726C9.25852 17.0953 9.62583 17.5416 10.0972 17.8543C10.2258 17.9383 10.3594 18.0105 10.4981 18.0711C10.5629 18.0831 10.6225 18.1071 10.6733 18.1399C10.9853 18.2499 11.3161 18.3007 11.6517 18.2891C12.2161 18.2663 12.7607 18.075 13.2154 17.7399C13.6907 17.3906 14.0587 16.9153 14.2779 16.3678C14.3191 16.2715 14.3964 16.1953 14.4931 16.1554C14.5899 16.1155 14.6984 16.1151 14.7955 16.1543C14.8925 16.1935 14.9704 16.2692 15.0122 16.3651C15.0541 16.461 15.0567 16.5696 15.0195 16.6674C14.7443 17.3537 14.2825 17.9493 13.6863 18.3867C13.1025 18.8158 12.4037 19.0603 11.6797 19.0887C11.4313 19.0974 11.1827 19.0794 10.9381 19.0351L11.2857 21.2405C11.3165 21.4365 11.1473 21.6173 10.9077 21.6437C10.6677 21.6701 10.4485 21.5321 10.4177 21.3357L10.0056 18.7235C9.88641 18.6633 9.77062 18.5966 9.65881 18.5235C9.05412 18.1236 8.58262 17.5522 8.30473 16.8826C8.02007 16.1995 7.93249 15.4504 8.05192 14.7201C8.16871 13.9861 8.48569 13.2986 8.96797 12.7332C9.08158 12.6011 9.25999 12.4335 9.4168 12.2899L9.54881 12.1691C9.66081 12.0671 9.75602 11.9811 9.81842 11.9183L10.1956 11.5411C10.3357 11.4011 10.3781 11.2907 10.3881 11.2083C10.3993 11.1211 10.3809 11.013 10.3097 10.8706C10.2623 10.7758 10.2545 10.666 10.288 10.5654C10.3216 10.4648 10.3937 10.3817 10.4885 10.3342M21.994 18.7235C22.1133 18.6633 22.2292 18.5966 22.3412 18.5235C22.9459 18.1236 23.4174 17.5522 23.6953 16.8826C23.9799 16.1995 24.0675 15.4504 23.9481 14.7201C23.8313 13.9861 23.5143 13.2986 23.032 12.7332C22.9184 12.6011 22.74 12.4335 22.5832 12.2899L22.4512 12.1691C22.3392 12.0671 22.244 11.9811 22.1816 11.9183L21.8044 11.5411C21.6643 11.4011 21.6219 11.2907 21.6119 11.2083C21.6007 11.1211 21.6191 11.013 21.6903 10.8706C21.7368 10.7759 21.7439 10.6666 21.7101 10.5666C21.6763 10.4666 21.6044 10.384 21.5099 10.3368C21.4155 10.2896 21.3063 10.2816 21.206 10.3147C21.1058 10.3477 21.0226 10.419 20.9747 10.513C20.8575 10.7478 20.7815 11.017 20.8179 11.3075C20.8547 11.6023 21.0011 11.8691 21.2383 12.1067L21.6155 12.4839C21.6927 12.5607 21.8096 12.6671 21.9272 12.7744L22.0424 12.8796C22.206 13.0296 22.3476 13.1644 22.424 13.2536C22.8107 13.707 23.0648 14.2583 23.1584 14.8469C23.254 15.4296 23.1845 16.0274 22.9576 16.5726C22.7415 17.0953 22.3742 17.5416 21.9028 17.8543C21.7745 17.9383 21.6409 18.0105 21.5019 18.0711C21.4371 18.0831 21.3775 18.1071 21.3267 18.1399C21.0129 18.2509 20.6809 18.3015 20.3483 18.2891C19.7839 18.2663 19.2393 18.075 18.7846 17.7399C18.3093 17.3906 17.9413 16.9153 17.7221 16.3678C17.7032 16.318 17.6745 16.2726 17.6378 16.234C17.6011 16.1955 17.5571 16.1647 17.5083 16.1434C17.4595 16.1221 17.407 16.1107 17.3538 16.11C17.3005 16.1092 17.2477 16.1191 17.1984 16.1391C17.149 16.159 17.1041 16.1886 17.0664 16.2261C17.0286 16.2636 16.9987 16.3082 16.9784 16.3574C16.9581 16.4066 16.9478 16.4594 16.9482 16.5126C16.9485 16.5658 16.9595 16.6185 16.9805 16.6674C17.2557 17.3537 17.7175 17.9493 18.3137 18.3867C18.8975 18.8158 19.5963 19.0603 20.3203 19.0887C20.5687 19.0974 20.8173 19.0794 21.0619 19.0351L20.7143 21.2405C20.6835 21.4365 20.8527 21.6173 21.0923 21.6437C21.3323 21.6701 21.5515 21.5321 21.5823 21.3357L21.994 18.7235Z" fill="black"></path><path d="M11.5996 16.4062C11.5996 16.6184 11.5153 16.8219 11.3653 16.9719C11.2152 17.1219 11.0117 17.2062 10.7996 17.2062C10.5874 17.2062 10.3839 17.1219 10.2338 16.9719C10.0838 16.8219 9.99951 16.6184 9.99951 16.4062C9.99951 16.194 10.0838 15.9905 10.2338 15.8405C10.3839 15.6904 10.5874 15.6061 10.7996 15.6061C11.0117 15.6061 11.2152 15.6904 11.3653 15.8405C11.5153 15.9905 11.5996 16.194 11.5996 16.4062ZM21.2002 17.2062C21.4124 17.2062 21.6159 17.1219 21.7659 16.9719C21.916 16.8219 22.0002 16.6184 22.0002 16.4062C22.0002 16.194 21.916 15.9905 21.7659 15.8405C21.6159 15.6904 21.4124 15.6061 21.2002 15.6061C20.988 15.6061 20.7845 15.6904 20.6345 15.8405C20.4844 15.9905 20.4001 16.194 20.4001 16.4062C20.4001 16.6184 20.4844 16.8219 20.6345 16.9719C20.7845 17.1219 20.988 17.2062 21.2002 17.2062Z" fill="black"></path></svg>