<svg xmlns="http://www.w3.org/2000/svg" width="31" height="32" viewBox="0 0 31 32" fill="none"><rect width="31" height="32" rx="15.5" fill="#F0F0F0"></rect><path d="M18.8064 7L20.6801 8.87376C20.7613 8.95776 20.8062 9.07026 20.8051 9.18704C20.8041 9.30382 20.7573 9.41553 20.6747 9.49811C20.5921 9.58069 20.4804 9.62753 20.3636 9.62855C20.2469 9.62956 20.1344 9.58467 20.0504 9.50354L19.2518 8.70495V25H18.361V8.70495L17.5624 9.50354C17.5213 9.54608 17.4722 9.58001 17.4178 9.60335C17.3635 9.62669 17.305 9.63898 17.2459 9.63949C17.1868 9.64001 17.1281 9.62874 17.0734 9.60634C17.0187 9.58395 16.9689 9.55088 16.9271 9.50906C16.8853 9.46724 16.8522 9.41751 16.8298 9.36277C16.8074 9.30804 16.7962 9.24939 16.7967 9.19025C16.7972 9.13111 16.8095 9.07267 16.8328 9.01833C16.8562 8.96399 16.8901 8.91484 16.9326 8.87376L18.8064 7ZM15.466 8.96595C15.466 9.43845 15.2783 9.8916 14.9441 10.2257C14.61 10.5598 14.1569 10.7475 13.6844 10.7475C13.2119 10.7475 12.7587 10.5598 12.4246 10.2257C12.0905 9.8916 11.9028 9.43845 11.9028 8.96595C11.9028 8.49345 12.0905 8.04031 12.4246 7.7062C12.7587 7.37209 13.2119 7.18439 13.6844 7.18439C14.1569 7.18439 14.61 7.37209 14.9441 7.7062C15.2783 8.04031 15.466 8.49345 15.466 8.96595Z" fill="black"></path><path d="M16.3567 18.23C16.4983 18.1615 16.6192 18.0566 16.7071 17.9262C16.795 17.7958 16.8469 17.6445 16.8573 17.4875L17.1713 12.7784C17.2101 12.1994 16.6939 11.7371 16.1206 11.8253C15.3278 11.9469 14.3012 12.0836 13.6844 12.0836C13.0675 12.0836 12.0409 11.9469 11.2481 11.8253C10.6744 11.7371 10.1586 12.1994 10.197 12.7784L10.511 17.4875C10.5214 17.6446 10.5733 17.7961 10.6613 17.9266C10.7493 18.0571 10.8703 18.1619 11.012 18.2304V24.1091C11.0122 24.3394 11.1015 24.5605 11.2613 24.7263C11.421 24.8921 11.6387 24.9897 11.8687 24.9985C12.0987 25.0073 12.3233 24.9267 12.4952 24.7736C12.6671 24.6205 12.7731 24.4068 12.7909 24.1773L13.2363 18.3872C13.2381 18.3645 13.2389 18.3418 13.239 18.3191H14.1297C14.1297 18.3416 14.1306 18.3644 14.1324 18.3872L14.5778 24.1773C14.5956 24.4068 14.7016 24.6205 14.8735 24.7736C15.0455 24.9267 15.27 25.0073 15.5 24.9985C15.7301 24.9897 15.9478 24.8921 16.1075 24.7263C16.2672 24.5605 16.3565 24.3394 16.3567 24.1091V18.23Z" fill="black"></path></svg>