<svg xmlns="http://www.w3.org/2000/svg" width="32" height="32" viewBox="0 0 32 32" fill="none"><rect width="32" height="32" rx="16" fill="#F0F0F0"></rect><path d="M14.6667 19.3333L17.3334 16.6667M14.6667 16.6667H14.6727M17.3274 19.3333H17.3334M16.0001 22.6667C17.4146 22.6667 18.7711 22.1048 19.7713 21.1046C20.7715 20.1044 21.3334 18.7478 21.3334 17.3333C21.3334 13.3333 16.0001 9.33333 16.0001 9.33333C15.7414 10.9913 15.4881 11.8813 14.6667 13.3333C13.8667 12.9633 13.6667 12.6667 13.3334 11.8333C12.0001 13.3333 10.6667 15.3333 10.6667 17.3333C10.6667 18.7478 11.2287 20.1044 12.2288 21.1046C13.229 22.1048 14.5856 22.6667 16.0001 22.6667Z" stroke="black" stroke-linecap="round" stroke-linejoin="round"></path></svg>