<svg width="32" height="32" viewBox="0 0 32 32" fill="none" xmlns="http://www.w3.org/2000/svg">
<rect width="32" height="32" rx="16" fill="#F0F0F0"/>
<path d="M14.64 5.60001C16.098 5.60001 17.28 4.41804 17.28 2.96001C17.28 1.50198 16.098 0.320007 14.64 0.320007C13.182 0.320007 12 1.50198 12 2.96001C12 4.41804 13.182 5.60001 14.64 5.60001Z" fill="#F0F0F0"/>
<path d="M14.08 6.39999H12.16C10.3552 6.39999 8.95996 7.50015 8.95996 9.33567V17.28C8.95996 18.56 10.88 18.56 10.88 17.28V9.59999H11.52V30.08C11.52 30.8691 12.0115 31.36 12.8 31.36C13.5904 31.36 14.08 30.8691 14.08 30.08V6.39999ZM22.4 16L19.8291 9.37151C19.6057 7.88607 18.1056 6.39999 16.3936 6.39999H14.72V21.6211C15.04 21.6224 15.36 21.6691 15.36 21.76V30.08C15.36 30.7456 15.9468 31.36 16.64 31.36C17.335 31.36 17.92 30.745 17.92 30.08V21.76H20.3961C20.6278 21.76 21.0643 21.3414 21.0643 21.12C21.0643 21.0688 21.0828 20.5242 21.0643 20.48L17.2825 10.0883L17.2608 9.98143C17.2608 9.82975 17.3881 9.70687 17.5468 9.70687C17.6819 9.70687 17.7952 9.79711 17.8252 9.91743L20.3961 16.64C20.567 17.0246 21.2697 17.28 21.7318 17.28C22.3494 17.28 22.4134 16.0672 22.4 16Z" fill="#F0F0F0"/>
<path d="M15.6386 10.1044C16.4959 10.1044 17.1908 9.40944 17.1908 8.55219C17.1908 7.69494 16.4959 7 15.6386 7C14.7814 7 14.0864 7.69494 14.0864 8.55219C14.0864 9.40944 14.7814 10.1044 15.6386 10.1044Z" fill="black"/>
<path d="M15.3094 10.5747H14.1805C13.1194 10.5747 12.2991 11.2216 12.2991 12.3008V16.9716C12.2991 17.7242 13.4279 17.7242 13.4279 16.9716V12.4562H13.8042V24.4974C13.8042 24.9614 14.0932 25.25 14.5568 25.25C15.0215 25.25 15.3094 24.9614 15.3094 24.4974V10.5747ZM20.2011 16.2191L18.6896 12.3218C18.5583 11.4485 17.6762 10.5747 16.6697 10.5747H15.6857V19.524C15.8738 19.5248 16.062 19.5522 16.062 19.6057V24.4974C16.062 24.8888 16.407 25.25 16.8145 25.25C17.2232 25.25 17.5671 24.8884 17.5671 24.4974V19.6057H19.023C19.1592 19.6057 19.4158 19.3596 19.4158 19.2294C19.4158 19.1993 19.4267 18.8791 19.4158 18.8531L17.1923 12.7433L17.1795 12.6804C17.1795 12.5913 17.2544 12.519 17.3477 12.519C17.4271 12.519 17.4937 12.5721 17.5114 12.6428L19.023 16.5954C19.1234 16.8215 19.5366 16.9716 19.8083 16.9716C20.1714 16.9716 20.209 16.2586 20.2011 16.2191Z" fill="black"/>
</svg>
