<svg xmlns="http://www.w3.org/2000/svg" width="31" height="32" viewBox="0 0 31 32" fill="none"><rect width="31" height="32" rx="15.5" fill="#F0F0F0"></rect><path d="M15.5004 10.9363C11.5622 10.9363 9.37394 13.9991 8.59629 15.3606C8.43642 15.6398 8.35684 15.7801 8.3648 15.9885C8.37421 16.1968 8.46825 16.3328 8.65561 16.6048C9.58155 17.9489 12.0961 21.0638 15.5004 21.0638C18.9047 21.0638 21.4192 17.9489 22.3451 16.6048C22.5332 16.3328 22.6272 16.1968 22.6352 15.9885C22.6432 15.7801 22.5643 15.6398 22.4044 15.3606C21.6275 13.9991 19.4385 10.9363 15.5004 10.9363Z" stroke="black"></path><path d="M15.5004 18.1702C16.6989 18.1702 17.6706 17.1986 17.6706 16C17.6706 14.8015 16.6989 13.8298 15.5004 13.8298C14.3018 13.8298 13.3302 14.8015 13.3302 16C13.3302 17.1986 14.3018 18.1702 15.5004 18.1702Z" stroke="black"></path></svg>